# xmcd
#
# Track frame offsets:
#	150
#	18622
#	30797
#	53252
#	67245
#	87962
#	116368
#	133014
#	151970
#	174978
#	200581
#	211024
#	230832
#
# Disc length: 3323 seconds
#
# Revision: 1
# Processed by: cddbd v1.5.1PL0 Copyright (c) Steve Scherf et al.
# Submitted via: audiograbber 1.80.04
#
DISCID=a40cf90d
DTITLE=unknown - shoarma
DYEAR=2004
DGENRE=blues
TTITLE0=rsth
TTITLE1=hsrth
TTITLE2=rsth
TTITLE3=rsth
TTITLE4=xdbf
TTITLE5=dfb
TTITLE6=dbf
TTITLE7=dfgbh
TTITLE8=dfgb
TTITLE9=dfg
TTITLE10=fhnm
TTITLE11=fn
TTITLE12=fgn
EXTD=
EXTT0=
EXTT1=
EXTT2=
EXTT3=
EXTT4=
EXTT5=
EXTT6=
EXTT7=
EXTT8=
EXTT9=
EXTT10=
EXTT11=
EXTT12=
PLAYORDER=
